<svg width="21" height="21" viewBox="0 0 21 21" fill="none" xmlns="http://www.w3.org/2000/svg">
<path d="M1.54908 14.9303C0.857324 13.5558 0.498258 12.0379 0.500838 10.499C0.500838 8.90585 0.877473 7.40264 1.54908 6.06775L4.99046 8.64087C4.58367 9.84626 4.58367 11.1518 4.99046 12.3572L1.54908 14.9303Z" fill="#FBBC05"/>
<path d="M1.5491 6.06787C3.2123 2.76148 6.68867 0.5 10.7317 0.5C13.3365 0.5 15.6629 1.45492 17.4761 2.99979L14.4997 5.90788C13.4312 5.0522 12.1022 4.58765 10.7333 4.59133C8.05023 4.59133 5.78375 6.28285 4.99048 8.64099L1.5491 6.06787Z" fill="#EA4335"/>
<path d="M1.54749 14.9272L4.9872 12.349C5.7788 14.7105 8.04528 16.407 10.7334 16.407C13.5698 16.407 15.7096 14.9988 16.2213 12.544H10.7334V8.68268H20.2659C20.4059 9.2743 20.4992 9.90924 20.4992 10.5009C20.4992 16.8637 15.8496 20.5 10.7334 20.5C6.68872 20.5 3.21068 18.2369 1.54749 14.9288V14.9272Z" fill="#34A853"/>
<path d="M17.4011 18.0086L14.1347 15.5371C14.672 15.2112 15.1351 14.7766 15.4944 14.2612C15.8538 13.7457 16.1013 13.1608 16.2212 12.544H10.7333V8.68268H20.2659C20.4059 9.2743 20.4992 9.90924 20.4992 10.5009C20.4992 13.7606 19.2793 16.3037 17.4011 18.0102V18.0086Z" fill="#4285F4"/>
</svg>
