<svg width="120" height="45" viewBox="0 0 120 45" fill="none" xmlns="http://www.w3.org/2000/svg">
<path fill-rule="evenodd" clip-rule="evenodd" d="M66.5757 18.6803V5.25763H62.9099L62.763 6.49939C62.4437 6.11005 62.0667 5.79059 61.6321 5.54103C61.0039 5.18034 60.2166 5 59.27 5C58.0997 5 57.0886 5.30057 56.2367 5.90171C55.3848 6.49427 54.7266 7.32728 54.2619 8.40075C53.8058 9.46563 53.5778 10.7066 53.5778 12.1235V12.394C53.5778 13.7423 53.8058 14.9489 54.2619 16.0138C54.7266 17.0787 55.3805 17.9203 56.2238 18.5386C57.0757 19.1483 58.0825 19.4532 59.2442 19.4532C60.3887 19.4532 61.3223 19.1397 62.0451 18.5128C62.2132 18.3668 62.3724 18.2095 62.5227 18.0408V18.6674C62.5227 19.5863 62.2603 20.2991 61.7353 20.8057C61.2104 21.3124 60.4704 21.5658 59.5153 21.5658C58.8268 21.5658 58.203 21.4284 57.6437 21.1535C57.0843 20.8787 56.6068 20.5224 56.2109 20.0844L54.4555 22.5576C54.8599 23.03 55.3547 23.425 55.9399 23.7428C56.5336 24.0605 57.1575 24.2967 57.8115 24.4512C58.474 24.6058 59.0936 24.6831 59.6701 24.6831C61.0383 24.6831 62.2387 24.4512 63.2713 23.9875C64.3126 23.5238 65.1214 22.841 65.698 21.9393C66.2831 21.0462 66.5757 19.9599 66.5757 18.6803ZM62.5227 9.3343V15.0892C62.3449 15.3678 62.1211 15.5987 61.8515 15.7819C61.4557 16.0567 60.9308 16.1941 60.2768 16.1941C59.6658 16.1941 59.1624 16.0267 58.7666 15.6917C58.3794 15.3482 58.0911 14.8888 57.9018 14.3134C57.7125 13.738 57.6178 13.0982 57.6178 12.394V12.1235C57.6178 11.385 57.7168 10.728 57.9147 10.1526C58.1126 9.56868 58.4095 9.10924 58.8053 8.77431C59.2098 8.4308 59.7089 8.25905 60.3026 8.25905C60.7845 8.25905 61.1975 8.33634 61.5417 8.49092C61.8859 8.63691 62.1699 8.8559 62.3936 9.14788C62.439 9.20703 62.482 9.26917 62.5227 9.3343Z" fill="#131F0F"/>
<path d="M69.2734 19.1955H73.3134V10.2432C73.3259 10.2169 73.3388 10.191 73.3521 10.1655C73.5587 9.7619 73.877 9.46133 74.3073 9.26382C74.7462 9.05771 75.3012 8.95466 75.9724 8.95466C76.1789 8.95466 76.4155 8.96754 76.6823 8.9933C76.949 9.01048 77.1771 9.03195 77.3664 9.05771L77.418 5.16746C77.2803 5.10735 77.0996 5.06441 76.8759 5.03864C76.6522 5.01288 76.4413 5 76.2434 5C75.4001 5 74.6773 5.26622 74.075 5.79866C73.7354 6.10316 73.4409 6.47506 73.1914 6.91437L73.0682 5.25763H69.2734V19.1955Z" fill="#131F0F"/>
<path fill-rule="evenodd" clip-rule="evenodd" d="M81.8582 18.5386C82.9166 19.1483 84.1859 19.4532 85.6659 19.4532C87.0255 19.4532 88.17 19.1955 89.0993 18.6803C90.0287 18.1564 90.7085 17.581 91.1387 16.9541L89.2284 14.7127C88.8154 15.2366 88.3206 15.6187 87.744 15.8592C87.1761 16.0911 86.5695 16.207 85.9241 16.207C85.2357 16.207 84.6462 16.061 84.1558 15.769C83.6653 15.4685 83.2909 15.0562 83.0328 14.5324C82.8875 14.2376 82.7831 13.9155 82.7196 13.5663H91.4614V11.8659C91.4614 10.4747 91.2205 9.26811 90.7386 8.24617C90.2567 7.21564 89.5511 6.41698 88.6218 5.85019C87.701 5.2834 86.5652 5 85.2142 5C83.8288 5 82.6413 5.31345 81.6517 5.94036C80.6707 6.55868 79.9178 7.41316 79.3929 8.5038C78.868 9.59444 78.6055 10.8311 78.6055 12.2137V12.7032C78.6055 13.9313 78.8852 15.0562 79.4445 16.0782C80.0038 17.1001 80.8084 17.9203 81.8582 18.5386ZM82.7408 10.874C82.7764 10.6407 82.8222 10.4174 82.8779 10.2042C83.0414 9.60303 83.3082 9.12641 83.6782 8.77431C84.0482 8.41363 84.5516 8.23329 85.1884 8.23329C85.7219 8.23329 86.1564 8.33205 86.492 8.52956C86.8362 8.71849 87.0901 8.98901 87.2536 9.34111C87.4171 9.68462 87.5031 10.0882 87.5117 10.552V10.874H82.7408Z" fill="#131F0F"/>
<path fill-rule="evenodd" clip-rule="evenodd" d="M96.2114 18.5386C97.2698 19.1483 98.5391 19.4532 100.019 19.4532C101.379 19.4532 102.523 19.1955 103.453 18.6803C104.382 18.1564 105.062 17.581 105.492 16.9541L103.582 14.7127C103.169 15.2366 102.674 15.6187 102.097 15.8592C101.529 16.0911 100.923 16.207 100.277 16.207C99.5889 16.207 98.9994 16.061 98.5089 15.769C98.0185 15.4685 97.6441 15.0562 97.386 14.5324C97.2407 14.2376 97.1363 13.9155 97.0728 13.5663H105.815V11.8659C105.815 10.4747 105.574 9.26811 105.092 8.24617C104.61 7.21564 103.904 6.41698 102.975 5.85019C102.054 5.2834 100.918 5 99.5674 5C98.182 5 96.9945 5.31345 96.0049 5.94036C95.0239 6.55868 94.271 7.41316 93.7461 8.5038C93.2211 9.59444 92.9587 10.8311 92.9587 12.2137V12.7032C92.9587 13.9313 93.2384 15.0562 93.7977 16.0782C94.357 17.1001 95.1616 17.9203 96.2114 18.5386ZM97.0939 10.874C97.1296 10.6407 97.1753 10.4174 97.2311 10.2042C97.3946 9.60303 97.6613 9.12641 98.0314 8.77431C98.4014 8.41363 98.9048 8.23329 99.5415 8.23329C100.075 8.23329 100.51 8.33205 100.845 8.52956C101.189 8.71849 101.443 8.98901 101.607 9.34111C101.77 9.68462 101.856 10.0882 101.865 10.552V10.874H97.0939Z" fill="#131F0F"/>
<path d="M107.699 19.1955H111.726V9.3897C111.755 9.34217 111.785 9.29592 111.817 9.25093C112.04 8.93319 112.32 8.68844 112.656 8.51668C112.991 8.34493 113.391 8.25905 113.856 8.25905C114.303 8.25905 114.682 8.31916 114.992 8.43939C115.31 8.55103 115.547 8.76143 115.702 9.07059C115.865 9.37116 115.947 9.80055 115.947 10.3588V19.1955H120V10.3845C120 9.04483 119.811 7.98424 119.432 7.20276C119.062 6.42127 118.546 5.85877 117.883 5.51526C117.229 5.17175 116.463 5 115.586 5C114.501 5 113.546 5.27481 112.72 5.82442C112.304 6.10009 111.934 6.43817 111.611 6.83869L111.481 5.25763H107.699V19.1955Z" fill="#131F0F"/>
<path fill-rule="evenodd" clip-rule="evenodd" d="M47.7126 38.4888C47.5658 38.6517 47.4109 38.804 47.2479 38.9456C46.5251 39.5811 45.5915 39.8989 44.447 39.8989C43.2767 39.8989 42.2828 39.5897 41.4653 38.9714C40.6565 38.3531 40.0412 37.5115 39.6196 36.4466C39.2065 35.3731 39 34.1623 39 32.814V32.5435C39 31.1265 39.2108 29.8856 39.6325 28.8207C40.0541 27.7558 40.6737 26.9271 41.4912 26.3345C42.3086 25.742 43.3025 25.4457 44.4728 25.4457C45.6173 25.4457 46.5466 25.7592 47.2608 26.3861C47.5203 26.6111 47.7593 26.8655 47.9778 27.1493L48.2418 25.7033H51.7656V45H47.7126V38.4888ZM47.7126 29.8661C47.6575 29.7646 47.5973 29.6695 47.5319 29.5807C47.3254 29.2801 47.0543 29.0569 46.7187 28.9109C46.3917 28.7563 45.9873 28.679 45.5054 28.679C44.9031 28.679 44.4212 28.8507 44.0598 29.1943C43.6983 29.5292 43.4359 29.9886 43.2724 30.5726C43.1175 31.148 43.0401 31.8049 43.0401 32.5435V32.814C43.0401 33.5096 43.1132 34.1537 43.2595 34.7462C43.4144 35.3302 43.6725 35.7982 44.0339 36.1503C44.3954 36.4938 44.8772 36.6656 45.4796 36.6656C46.1336 36.6656 46.6542 36.5239 47.0414 36.2405C47.3214 36.0356 47.5451 35.7746 47.7126 35.4575V29.8661Z" fill="#131F0F"/>
<path d="M66.7125 25.7033H62.6724V35.4563C62.5007 35.7609 62.2684 36.0138 61.9754 36.2147C61.571 36.4981 61.0074 36.6398 60.2845 36.6398C59.9145 36.6398 59.5875 36.5754 59.3036 36.4466C59.0282 36.3178 58.8131 36.116 58.6582 35.8412C58.5119 35.5578 58.4388 35.1928 58.4388 34.7462V25.7033H54.4116V34.7205C54.4116 36.5668 54.8376 37.8936 55.6895 38.7009C56.55 39.4995 57.6729 39.8989 59.0583 39.8989C60.2028 39.8989 61.1579 39.6155 61.9238 39.0487C62.2569 38.8049 62.5533 38.5231 62.8132 38.2031L62.9177 39.6412H66.7125V25.7033Z" fill="#131F0F"/>
<path fill-rule="evenodd" clip-rule="evenodd" d="M72.1466 38.9843C73.205 39.594 74.4742 39.8989 75.9543 39.8989C77.3139 39.8989 78.4584 39.6413 79.3877 39.126C80.3171 38.6021 80.9968 38.0267 81.4271 37.3998L79.5168 35.1584C79.1037 35.6823 78.6089 36.0645 78.0324 36.3049C77.4645 36.5368 76.8578 36.6527 76.2124 36.6527C75.524 36.6527 74.9346 36.5067 74.4441 36.2147C73.9536 35.9142 73.5793 35.502 73.3212 34.9781C73.1759 34.6833 73.0715 34.3612 73.0079 34.012H81.7498V32.3116C81.7498 30.9204 81.5088 29.7138 81.027 28.6919C80.5451 27.6613 79.8395 26.8627 78.9101 26.2959C77.9894 25.7291 76.8535 25.4457 75.5025 25.4457C74.1171 25.4457 72.9296 25.7592 71.9401 26.3861C70.9591 27.0044 70.2061 27.8589 69.6812 28.9495C69.1563 30.0401 68.8939 31.2768 68.8939 32.6594V33.1489C68.8939 34.377 69.1735 35.502 69.7329 36.5239C70.2922 37.5458 71.0968 38.366 72.1466 38.9843ZM73.0291 31.3197C73.0648 31.0864 73.1105 30.8631 73.1663 30.6499C73.3298 30.0487 73.5965 29.5721 73.9665 29.22C74.3366 28.8593 74.8399 28.679 75.4767 28.679C76.0102 28.679 76.4448 28.7777 76.7804 28.9753C77.1246 29.1642 77.3784 29.4347 77.5419 29.7868C77.7054 30.1303 77.7915 30.5339 77.8001 30.9977V31.3197H73.0291Z" fill="#131F0F"/>
<path d="M90.9271 35.094C91.0819 35.2744 91.1594 35.4891 91.1594 35.7381C91.1594 36.0043 91.0819 36.2405 90.9271 36.4466C90.7808 36.6441 90.5613 36.7987 90.2688 36.9103C89.9848 37.022 89.6234 37.0778 89.1845 37.0778C88.7457 37.0778 88.3498 37.0134 87.997 36.8846C87.6442 36.7472 87.3603 36.5368 87.1451 36.2534C86.93 35.97 86.8095 35.605 86.7837 35.1584H82.976C82.976 35.9142 83.2083 36.657 83.673 37.387C84.1463 38.1083 84.8347 38.7095 85.7382 39.1904C86.6504 39.6627 87.769 39.8989 89.0942 39.8989C90.3075 39.8989 91.3616 39.7142 92.2565 39.345C93.1514 38.9671 93.8442 38.4561 94.3346 37.8121C94.8251 37.1594 95.0704 36.4208 95.0704 35.5964C95.0704 34.6346 94.8294 33.866 94.3475 33.2906C93.8657 32.7066 93.2203 32.2558 92.4114 31.938C91.6112 31.6117 90.7205 31.3584 89.7396 31.178C89.1372 31.0664 88.6553 30.9419 88.2939 30.8045C87.9411 30.6585 87.683 30.491 87.5195 30.3021C87.3646 30.1046 87.2871 29.8813 87.2871 29.6322C87.2871 29.3574 87.3603 29.1213 87.5065 28.9237C87.6528 28.7176 87.8594 28.5545 88.1261 28.4342C88.4015 28.314 88.7156 28.2539 89.0684 28.2539C89.7568 28.2539 90.2516 28.4085 90.5527 28.7176C90.8625 29.0268 91.0174 29.4433 91.0174 29.9672H95.0446C95.0446 29.0826 94.8036 28.3011 94.3217 27.6227C93.8399 26.9443 93.1514 26.4118 92.2565 26.0254C91.3702 25.6389 90.3118 25.4457 89.0813 25.4457C87.8938 25.4457 86.8784 25.6475 86.0351 26.0511C85.1918 26.4548 84.5464 26.9915 84.099 27.6613C83.6515 28.3312 83.4278 29.0569 83.4278 29.8383C83.4278 30.6456 83.6429 31.3326 84.0731 31.8994C84.512 32.4576 85.1057 32.917 85.8544 33.2777C86.603 33.6298 87.4463 33.9089 88.3843 34.115C89.1329 34.2696 89.7051 34.4285 90.101 34.5917C90.5054 34.7462 90.7808 34.9137 90.9271 35.094Z" fill="#131F0F"/>
<path d="M102.079 28.6275H104.415V25.7033H102.079V22.2639H98.0391V25.7033H96.103V28.6275H98.0391V35.6866C98.0391 36.6828 98.2069 37.4943 98.5425 38.1212C98.8867 38.7395 99.3686 39.1904 99.9881 39.4738C100.616 39.7572 101.361 39.8989 102.221 39.8989C102.686 39.8989 103.107 39.8688 103.486 39.8087C103.865 39.7486 104.222 39.6584 104.557 39.5382V36.511C104.428 36.5368 104.273 36.5582 104.093 36.5754C103.921 36.5926 103.718 36.6012 103.486 36.6012C103.159 36.6012 102.888 36.5625 102.673 36.4853C102.466 36.408 102.316 36.2706 102.221 36.073C102.126 35.8669 102.079 35.5792 102.079 35.21V28.6275Z" fill="#131F0F"/>
<path d="M49.9227 1.64231C49.8989 1.23456 49.7261 0.849742 49.4373 0.560925C49.1484 0.272108 48.7636 0.099398 48.3558 0.0755858C37.5707 -0.549438 28.9109 2.72985 25.1895 8.87175C22.7308 12.9323 22.7349 17.8638 25.1562 22.5681C23.778 24.2085 22.7708 26.1274 22.2036 28.1933L18.8135 24.7911C20.4429 21.3889 20.3804 17.8429 18.6051 14.897C15.8546 10.3572 9.5057 7.9238 1.62317 8.38631C1.21536 8.41013 0.830498 8.58284 0.541645 8.87165C0.252791 9.16047 0.0800603 9.54529 0.0562451 9.95304C-0.408414 17.8346 2.0274 24.1827 6.56772 26.9328C8.06602 27.8481 9.78773 28.3326 11.5435 28.3329C13.2478 28.3119 14.9255 27.9082 16.4527 27.1516L21.6618 32.3601V38.3333C21.6618 38.7753 21.8375 39.1993 22.1501 39.5118C22.4627 39.8244 22.8867 40 23.3288 40C23.7709 40 24.1949 39.8244 24.5075 39.5118C24.8201 39.1993 24.9957 38.7753 24.9957 38.3333V32.1893C24.9883 29.5377 25.8907 26.9639 27.5524 24.8974C29.6964 26.0177 32.0742 26.6172 34.4931 26.6474C36.8318 26.655 39.127 26.0161 41.1254 24.8015C47.2681 21.0847 50.5561 12.426 49.9227 1.64231ZM8.28675 24.0827C5.0904 22.1472 3.28177 17.5658 3.32553 11.6656C9.22649 11.6156 13.8085 13.4303 15.7442 16.6262C16.7548 18.2929 16.9194 20.2368 16.2568 22.2389L11.1706 17.1533C10.8554 16.8539 10.4357 16.6895 10.0011 16.6951C9.5664 16.7006 9.1511 16.8757 8.84371 17.1831C8.53633 17.4904 8.36118 17.9057 8.35561 18.3403C8.35005 18.7749 8.5145 19.1945 8.81392 19.5096L13.9002 24.5953C11.8978 25.2578 9.95577 25.0932 8.28675 24.0827ZM39.3981 21.9535C36.6059 23.6431 33.3242 23.7723 29.9903 22.3702L41.1775 11.1823C41.4769 10.8671 41.6414 10.4475 41.6358 10.0129C41.6303 9.5783 41.4551 9.16305 41.1477 8.8557C40.8403 8.54835 40.425 8.37323 39.9904 8.36767C39.5557 8.3621 39.136 8.52654 38.8209 8.82591L27.6316 19.9993C26.223 16.6658 26.3501 13.3823 28.0483 10.5926C30.9529 5.8008 37.8416 3.12987 46.6617 3.33613C46.8618 12.1531 44.1947 19.0492 39.3981 21.9535Z" fill="#5C9249"/>
</svg>
