<svg width="57" height="34" viewBox="0 0 57 34" fill="none" xmlns="http://www.w3.org/2000/svg">
<path d="M54.8581 8.00507L30.4507 0.506295C29.1207 0.0976686 27.6857 0.0976686 26.3566 0.506295L1.94835 8.00507C-0.111406 8.6377 -0.111406 11.3616 1.94835 11.9942L6.20349 13.3015C5.26987 14.4556 4.69586 15.8635 4.63899 17.4052C3.79636 17.8882 3.20311 18.7597 3.20311 19.8001C3.20311 20.7434 3.70011 21.537 4.41586 22.0445L2.18198 32.0965C1.98773 32.9707 2.65273 33.8002 3.54786 33.8002H8.4575C9.35351 33.8002 10.0185 32.9707 9.82426 32.0965L7.59037 22.0445C8.30613 21.537 8.80313 20.7434 8.80313 19.8001C8.80313 18.7877 8.237 17.9407 7.43287 17.449C7.49937 16.1347 8.17138 14.9727 9.24326 14.236L26.3557 19.4939C27.1485 19.7371 28.6692 20.0407 30.4498 19.4939L54.8581 11.9951C56.9187 11.3616 56.9187 8.63858 54.8581 8.00507ZM31.2723 22.1705C28.776 22.937 26.6488 22.5135 25.5332 22.1705L12.8439 18.2724L11.6031 28.2002C11.6031 31.2933 19.1247 33.8002 28.4032 33.8002C37.6817 33.8002 45.2033 31.2933 45.2033 28.2002L43.9625 18.2715L31.2723 22.1705Z" fill="white"/>
</svg>
