<svg width="57" height="54" viewBox="0 0 57 54" fill="none" xmlns="http://www.w3.org/2000/svg">
<path d="M48.2496 3.1188C47.2444 1.4416 45.4048 0.4 43.4504 0.4H13.02C11.0656 0.4 9.22603 1.4416 8.22083 3.1188L0.635629 15.758C0.372429 16.1948 0.235229 16.6904 0.235229 17.2C0.235229 20.0168 1.31603 22.5592 3.03523 24.5304V48C3.03523 51.0884 5.54683 53.6 8.63523 53.6H19.8352H36.6352H47.8352C50.9236 53.6 53.4352 51.0884 53.4352 48V24.5304C55.1544 22.5592 56.2352 20.0168 56.2352 17.2C56.2352 16.6904 56.098 16.1948 55.8348 15.758L48.2496 3.1188ZM50.5904 17.9028C50.2432 20.658 47.8856 22.8 45.0352 22.8C41.9468 22.8 39.4352 20.2884 39.4352 17.2C39.4352 17.0096 39.3652 16.8416 39.326 16.6624L39.382 16.6512L37.2512 6H43.4504L50.5904 17.9028ZM24.9284 6H31.5392L33.8156 17.382C33.7176 20.3836 31.2592 22.8 28.2352 22.8C25.2112 22.8 22.7528 20.3836 22.6548 17.382L24.9284 6ZM13.02 6H19.2192L17.0912 16.6512L17.1472 16.6624C17.1052 16.8416 17.0352 17.0096 17.0352 17.2C17.0352 20.2884 14.5236 22.8 11.4352 22.8C8.58483 22.8 6.22723 20.658 5.88003 17.9028L13.02 6ZM22.6352 48V39.6H33.8352V48H22.6352ZM39.4352 48V39.6C39.4352 36.5116 36.9236 34 33.8352 34H22.6352C19.5468 34 17.0352 36.5116 17.0352 39.6V48H8.63523V28.0024C9.53403 28.2348 10.4608 28.4 11.4352 28.4C14.7756 28.4 17.7828 26.93 19.8352 24.6004C21.8876 26.93 24.8948 28.4 28.2352 28.4C31.5756 28.4 34.5828 26.93 36.6352 24.6004C38.6876 26.93 41.6948 28.4 45.0352 28.4C46.0096 28.4 46.9364 28.2348 47.8352 28.0024V48H39.4352Z" fill="white"/>
</svg>
