<svg width="57" height="40" viewBox="0 0 57 40" fill="none" xmlns="http://www.w3.org/2000/svg">
<path d="M0.403534 14.4972C0.403534 6.71158 6.71502 0.400148 14.5006 0.400148H25.5062C33.2918 0.400148 39.6032 6.71158 39.6032 14.4972C39.6032 22.2828 33.2918 28.5944 25.5062 28.5944H17.2034V35.3999C17.2034 35.3999 0.403534 31.9971 0.403534 14.4972Z" fill="white"/>
<path fill-rule="evenodd" clip-rule="evenodd" d="M29.0717 31.0137C31.0983 32.9596 33.8503 34.1554 36.8815 34.1554H41.0037V39.5999C41.0037 39.5999 56.4035 36.8777 56.4035 22.8778C56.4035 16.6493 51.3543 11.6001 45.1259 11.6001H42.0325C42.2743 12.5187 42.4031 13.4832 42.4031 14.4779C42.4031 22.5904 36.6924 29.3691 29.0717 31.0137Z" fill="white"/>
</svg>
