<svg width="57" height="56" viewBox="0 0 57 56" fill="none" xmlns="http://www.w3.org/2000/svg">
<path d="M28.6114 0.460903C39.943 0.462248 49.1286 9.64863 49.1286 20.9804C49.1286 21.0011 49.1286 21.0217 49.1285 21.0423V21.039V21.0961C49.1285 26.6123 46.9264 31.614 43.3535 35.2705L43.3572 35.2666C41.1451 37.5846 39.7836 40.7315 39.7836 44.1963C39.7836 44.249 39.784 44.3018 39.7847 44.3545L39.7846 44.3464L39.8017 46.1976H17.431V44.3586L17.4311 44.3032C17.4311 40.7695 16.0503 37.5583 13.7987 35.1797L13.8045 35.1858C10.265 31.5048 8.08513 26.494 8.08513 20.9741C8.08513 13.334 12.2611 6.6693 18.4549 3.13795L18.5559 3.08497C21.4503 1.43424 24.9161 0.460957 28.6092 0.460957H28.6116H28.6115L28.6114 0.460903ZM36.1922 42.5221C36.5856 38.6916 38.2294 35.3046 40.7026 32.717L40.6967 32.7234L40.7113 32.7087C43.648 29.7122 45.4603 25.6042 45.4603 21.073V21.0347V20.9782C45.4603 11.6728 37.9169 4.12935 28.6115 4.12935C19.3061 4.12935 11.7626 11.6728 11.7626 20.9782C11.7626 25.5117 13.553 29.6269 16.4654 32.6554L16.4601 32.65C18.9386 35.2591 20.5957 38.6697 21.0045 42.4547L21.0111 42.5294L36.1922 42.5221ZM17.4359 42.5294H39.787V49.0343C39.7828 52.6251 36.873 55.5349 33.2825 55.5391H23.9407C20.3499 55.5349 17.44 52.6251 17.4359 49.0346V49.0343V42.5294ZM36.1189 46.1976H21.1039V49.0343C21.1053 50.6003 22.3745 51.8696 23.9404 51.871H33.282C34.848 51.8696 36.1173 50.6004 36.1187 49.0344V49.0343L36.1189 46.1976ZM5.25764 22.8682H0.611389V19.2001H5.25769L5.25764 22.8682ZM12.276 4.18524H7.60534V0.517218H12.276L12.276 4.18524ZM12.276 41.5268H7.60534V37.8587H12.276L12.276 41.5268ZM56.6114 22.8683H51.9651V19.2002H56.6114V22.8683ZM49.6175 41.5268H44.9468V37.8587H49.6175L49.6175 41.5268ZM49.6175 4.18529H44.9468V0.517218H49.6175L49.6175 4.18529ZM28.5996 11.7447L34.1503 17.2953C38.8768 22.0414 38.8829 29.7114 34.1694 34.4641L28.617 40.0165L23.0835 34.4833C18.3359 29.7239 18.3359 22.0202 23.0829 17.2614L23.0835 17.2608L28.5996 11.7447ZM28.617 34.8291L31.5739 31.8722C34.8471 28.5444 34.8398 23.2033 31.5546 19.8871L31.5531 19.8856L28.5996 16.9321L25.6774 19.8545C22.3595 23.1802 22.3595 28.5637 25.677 31.8891L25.6774 31.8894L28.617 34.8291ZM30.4455 44.0455H26.7773V23.3574H30.4454L30.4455 44.0455Z" fill="white"/>
</svg>
