<svg width="57" height="64" viewBox="0 0 57 64" fill="none" xmlns="http://www.w3.org/2000/svg">
<path fill-rule="evenodd" clip-rule="evenodd" d="M17.6018 6.3616C13.7385 7.41057 9.90025 8.55151 6.09026 9.78347C5.74547 9.89096 5.43769 10.0945 5.2023 10.3708C4.96691 10.647 4.81346 10.9847 4.75957 11.3451C2.50795 27.9723 7.70399 40.1067 13.9012 48.0981C17.0104 52.1088 20.3773 55.0784 23.1823 57.0283C24.589 58.0011 25.8268 58.7093 26.8026 59.1616C27.2926 59.3877 27.6897 59.5413 27.9939 59.6309C28.128 59.6745 28.2649 59.7087 28.4037 59.7333C28.4332 59.7291 28.5642 59.712 28.8134 59.6352C29.1176 59.5413 29.5147 59.3877 30.0047 59.1616C30.9763 58.7093 32.2225 58.0011 33.625 57.0283C37.1424 54.5357 40.2707 51.5257 42.9061 48.0981C49.1033 40.1067 54.2994 27.9723 52.0478 11.3451C51.9939 10.9847 51.8404 10.647 51.605 10.3708C51.3696 10.0945 51.0619 9.89096 50.7171 9.78347C48.0726 8.93013 43.6116 7.5392 39.2055 6.3616C34.7023 5.16267 30.5581 4.26667 28.4037 4.26667C26.2492 4.26667 22.1093 5.16267 17.6018 6.3616ZM16.5204 2.24C20.9264 1.0624 25.6029 0 28.4037 0C31.2002 0 35.8809 1.0624 40.287 2.24C44.2169 3.30571 48.1214 4.46514 51.9971 5.71733C54.2276 6.43413 55.9089 8.37547 56.2342 10.7691C58.6548 28.6763 53.0405 41.9456 46.2349 50.7264C43.3348 54.4948 39.8917 57.8026 36.0203 60.5397C34.6742 61.4921 33.2512 62.3284 31.7663 63.04C30.6257 63.5691 29.4091 64 28.4037 64C27.3982 64 26.1816 63.5691 25.041 63.04C23.5558 62.3291 22.1328 61.4927 20.787 60.5397C16.9172 57.8023 13.4755 54.4944 10.5766 50.7264C3.7626 41.9456 -1.84743 28.6763 0.573166 10.7691C0.735007 9.60884 1.21886 8.51862 1.96871 7.6246C2.71856 6.73058 3.70375 6.06931 4.81026 5.71733C8.68595 4.46517 12.5904 3.30574 16.5204 2.24Z" fill="white"/>
<path d="M28.4036 7.46666C32.2436 7.46666 41.8711 10.3893 46.3743 11.8272C47.1 12.0519 47.7468 12.482 48.2379 13.0666C48.729 13.6511 49.044 14.3656 49.1455 15.1253C52.5842 42.5344 31.6987 55.4538 28.4036 55.4538V7.46666Z" fill="white"/>
</svg>
